<svg xmlns="http://www.w3.org/2000/svg" width="960" height="640" viewBox="0 0 960 640" role="img" aria-labelledby="title desc">
  <title id="title">Gambar campaign DonasiKita</title>
  <desc id="desc">Ilustrasi pengganti untuk campaign donasi.</desc>
  <defs>
    <linearGradient id="bg" x1="0" x2="1" y1="0" y2="1">
      <stop offset="0" stop-color="#168466"/>
      <stop offset="1" stop-color="#0f604f"/>
    </linearGradient>
  </defs>
  <rect width="960" height="640" fill="#eef4f8"/>
  <rect x="64" y="64" width="832" height="512" rx="28" fill="url(#bg)"/>
  <circle cx="732" cy="150" r="72" fill="#f5b841" opacity=".9"/>
  <path d="M145 464c88-94 146-142 226-142 60 0 96 30 138 68 35 31 74 66 134 66 62 0 107-36 172-95v115H145z" fill="#ffffff" opacity=".92"/>
  <path d="M275 228c0-48 39-87 87-87 31 0 58 16 74 41 16-25 43-41 74-41 48 0 87 39 87 87 0 92-161 177-161 177s-161-85-161-177z" fill="#ffffff"/>
  <text x="480" y="525" fill="#ffffff" font-family="Arial, sans-serif" font-size="42" font-weight="700" text-anchor="middle">DonasiKita</text>
</svg>
